<svg xmlns="http://www.w3.org/2000/svg" viewBox="0 0 371.74 61.5"><defs><style>.cls-1{fill:#4d6a6d;}</style></defs><title>logo1_1</title><g id="Layer_2" data-name="Layer 2"><g id="Layer_1-2" data-name="Layer 1"><path class="cls-1" d="M80.89,16.13c0-2.85,2.9-3.8,5.18-3.8a9.07,9.07,0,0,1,6.32,2.59V10.25a19.54,19.54,0,0,0-6-.89c-4.93,0-10.11,2-10.11,7.21,0,8.78,13.84,7.64,13.84,14.09,0,2.91-3.47,4.3-5.75,4.3a13.6,13.6,0,0,1-8.78-3.42l1.14,5.18A19.72,19.72,0,0,0,83.92,38c6.25,0,10.8-4.17,10.8-8.6C94.72,21.75,80.89,21.81,80.89,16.13Z"/><path class="cls-1" d="M128.66,10.12c3.16,1.14,1.83,4.49,1.07,6.83l-4.55,15.16-5.56-17.94A9.31,9.31,0,0,1,119,10H113.3v.12c2.21,1.14,1.39,3.86.63,6.38l-4.67,15.74-6-19.21a7.73,7.73,0,0,1-.5-3H96.87v.13c2,1.39,2.59,4.1,3.35,6.38L105,31.86c1.33,4.3,1.71,4,5.37,6.7l6.26-21L121,31.86c1.33,4.3,1.58,4,5.31,6.7L134.79,10h-6.2v.12Z"/><path class="cls-1" d="M159.56,31.29,151.21,10h-6.38v.12c2,.63,1.14,2.34.63,3.86l-6.69,17.31c-.89,2.34-1.58,4.68-3.92,5.88v.12h7.39v-.12c-2-.76-1.64-2-.82-4.3L143.51,27h10.11l2.14,5.88c1.08,2.91,1.39,3.35-.56,4.3v.12h8.27v-.12C161.2,36,160.5,33.69,159.56,31.29Zm-15-7.27,4-10.42L152.48,24Z"/><path class="cls-1" d="M183.25,31.48,177.44,24c3.28-.82,6.38-3.66,6.38-7.27,0-3.79-2.91-6.69-8.34-6.69h-9.61v.12c2,.76,1.77,3.79,1.77,5.75V31.48c0,1.9.26,4.93-1.77,5.69v.12h7.71v-.12c-2-.76-1.83-3.79-1.83-5.69V12.9a13.75,13.75,0,0,1,2.72-.31,4.66,4.66,0,0,1,5.18,4.61c0,3.92-3.73,5.43-7,5.94L176.43,29l4.93,6.25A5.24,5.24,0,0,0,186,37.36h3.73A29.07,29.07,0,0,1,183.25,31.48Z"/><path class="cls-1" d="M208.21,10h-16a4.25,4.25,0,0,1-1.51-.32h-.13l-1.39,4.93h.13a6.84,6.84,0,0,1,4.8-1.64h3.54V31.48c0,1.9.25,4.87-1.77,5.69v.12h8v-.12c-2.15-1.27-2.08-2.91-2.08-5.25V13h3.6c1.32,0,2.9.19,3.47,1.64H209l1.26-4.93h-.12A4.5,4.5,0,0,1,208.21,10Z"/><path class="cls-1" d="M234.69,10.12c2,.76,1.77,3.79,1.77,5.75V21H221.92V15.87c0-1.89-.25-4.93,1.77-5.75V10h-7.64v.12c2,.76,1.77,3.79,1.77,5.69V31.48c0,1.9.25,4.87-1.77,5.69v.12h7.71v-.12c-2-.76-1.77-3.79-1.77-5.69V24h14.53v7.52c0,1.9.25,4.87-1.77,5.69v.13h7.71v-.13c-2-.76-1.83-3.79-1.83-5.69V15.81c0-1.9-.26-4.87,1.83-5.69V10h-7.71v.12Z"/><path class="cls-1" d="M284.35,33,281.7,12.65c0-1,.25-2.15,1.26-2.46v-.13H276v.06a6.44,6.44,0,0,1-.63,2.59l-6.7,17.57L261.1,12a4.79,4.79,0,0,1-.57-1.9v-.06h-7v.13c1.83,1,1.39,2.71,1.26,3.85l-2.27,17.31c-.32,2.28-.57,4.3-2.28,5.82v.12h6.57v-.12c-1.89-.89-1.64-2.72-1.26-5.25l2.27-17.82,7.65,18.71a9.79,9.79,0,0,0,3.54,5L278,14l2.28,20c0,1.39-.25,2.65-1.64,3.09v.13h7.77V37.1C284.8,36,284.61,34.89,284.35,33Z"/><path class="cls-1" d="M306.41,9.3A14.51,14.51,0,0,0,291.3,23.58C291.3,32.11,298,38,306,38a14.52,14.52,0,0,0,14.79-14.6A14,14,0,0,0,306.41,9.3ZM306.22,35c-6.32,0-10.3-5.94-10.3-11.75,0-6.26,4-10.94,10.23-10.94s10.11,5.88,10.11,11.88C316.2,30.41,312.28,35,306.22,35Z"/><path class="cls-1" d="M343.81,31.48,338,24c3.29-.82,6.38-3.66,6.38-7.27,0-3.79-2.9-6.69-8.34-6.69h-9.6v.12c2,.76,1.77,3.79,1.77,5.75V31.48c0,1.9.25,4.93-1.77,5.69v.12h7.71v-.12c-2-.76-1.84-3.79-1.84-5.69V12.9a13.84,13.84,0,0,1,2.72-.31,4.66,4.66,0,0,1,5.18,4.61c0,3.92-3.73,5.43-6.95,5.94L337,29l4.93,6.25a5.24,5.24,0,0,0,4.67,2.09h3.73A29.07,29.07,0,0,1,343.81,31.48Z"/><path class="cls-1" d="M364.22,34.32l-5.12-.5V24h3c1.27,0,2.91-.06,3.61,1.14h.12V20.74h-.12a4.07,4.07,0,0,1-1.77.25H359.1V13.28a22,22,0,0,1,4.11-.31c1.83,0,3.48.19,4.74,1.64h.13V9.74H368a3.61,3.61,0,0,1-1.89.19h-12.9v.13c2,.76,1.84,3.79,1.84,5.75V31.42c0,1.89.25,4.93-1.84,5.68v.13h16.75l1.83-5.43h-.12A9.43,9.43,0,0,1,364.22,34.32Z"/><path class="cls-1" d="M80.44,52.29a1.85,1.85,0,0,0-.6-.51,1.7,1.7,0,0,0-.87-.21,1.65,1.65,0,0,0-.85.21.65.65,0,0,0-.35.6.69.69,0,0,0,.2.51,1.49,1.49,0,0,0,.49.32,3.82,3.82,0,0,0,.6.19l.55.1a6.07,6.07,0,0,1,.82.26,2,2,0,0,1,.67.4,1.53,1.53,0,0,1,.44.59,2,2,0,0,1,.16.85,1.91,1.91,0,0,1-.26,1,2.14,2.14,0,0,1-.66.71,2.92,2.92,0,0,1-.94.39,4.72,4.72,0,0,1-1.06.12,4.23,4.23,0,0,1-1.57-.27,2.89,2.89,0,0,1-1.21-1l1-.85a4.26,4.26,0,0,0,.74.59,1.88,1.88,0,0,0,1,.26,2.39,2.39,0,0,0,.53-.06,1.63,1.63,0,0,0,.47-.16,1,1,0,0,0,.33-.29.65.65,0,0,0,.13-.41.69.69,0,0,0-.19-.5,1.34,1.34,0,0,0-.45-.31,5.22,5.22,0,0,0-.56-.18l-.53-.11c-.29-.07-.57-.16-.83-.25A2.43,2.43,0,0,1,77,54a1.62,1.62,0,0,1-.49-.58,1.87,1.87,0,0,1-.18-.87,2.06,2.06,0,0,1,.23-1,2.19,2.19,0,0,1,.63-.69,2.74,2.74,0,0,1,.88-.41,3.74,3.74,0,0,1,1-.13,3.67,3.67,0,0,1,1.4.27,2.2,2.2,0,0,1,1.07.91Z"/><path class="cls-1" d="M87.65,51.66h-2v3.27c0,.2,0,.4,0,.6a1.42,1.42,0,0,0,.12.53.76.76,0,0,0,.3.38,1,1,0,0,0,.6.15,2.92,2.92,0,0,0,.5-.05,1.26,1.26,0,0,0,.47-.17v1.25a1.68,1.68,0,0,1-.63.19,4,4,0,0,1-.6,0,2.69,2.69,0,0,1-1.22-.22,1.43,1.43,0,0,1-.64-.57,1.7,1.7,0,0,1-.24-.78,8.44,8.44,0,0,1,0-.87V51.66H82.74V50.48h1.58v-2h1.37v2h2Z"/><path class="cls-1" d="M96.22,57.68H94.85V56.57h0a2,2,0,0,1-.9.94,2.91,2.91,0,0,1-1.47.35,3,3,0,0,1-1-.16,2.18,2.18,0,0,1-.83-.49,2.31,2.31,0,0,1-.57-.86,3.32,3.32,0,0,1-.21-1.24V50.48H91.2v4.25a2.42,2.42,0,0,0,.14.86,1.59,1.59,0,0,0,.36.58,1.45,1.45,0,0,0,.53.32,2.11,2.11,0,0,0,.61.1,2.32,2.32,0,0,0,.8-.14,1.58,1.58,0,0,0,.63-.43,1.94,1.94,0,0,0,.43-.76,3.41,3.41,0,0,0,.15-1.07V50.48h1.37Z"/><path class="cls-1" d="M105.93,57.68h-1.37v-1h0a2.67,2.67,0,0,1-1.08.9,3.4,3.4,0,0,1-1.42.31,3.88,3.88,0,0,1-1.52-.28,3.52,3.52,0,0,1-1.15-.81,3.71,3.71,0,0,1-.74-1.2,4.24,4.24,0,0,1-.26-1.49,4.3,4.3,0,0,1,.26-1.5,3.45,3.45,0,0,1,1.89-2A3.88,3.88,0,0,1,102,50.3a3.27,3.27,0,0,1,1.45.32,2.51,2.51,0,0,1,1,.89h0V46.19h1.37Zm-3.74-1.09a2.57,2.57,0,0,0,1-.19,2.24,2.24,0,0,0,.75-.52,2.3,2.3,0,0,0,.47-.79,3.27,3.27,0,0,0,0-2,2.3,2.3,0,0,0-.47-.79,2.24,2.24,0,0,0-.75-.52,2.4,2.4,0,0,0-1-.19,2.46,2.46,0,0,0-1,.19,2.2,2.2,0,0,0-.74.52,2.3,2.3,0,0,0-.47.79,3.09,3.09,0,0,0,0,2,2.3,2.3,0,0,0,.47.79,2.2,2.2,0,0,0,.74.52A2.64,2.64,0,0,0,102.19,56.59Z"/><path class="cls-1" d="M109.46,54.58a1.88,1.88,0,0,0,.2.86,2.17,2.17,0,0,0,.54.66,2.68,2.68,0,0,0,1.69.58,2,2,0,0,0,1.11-.3,3.94,3.94,0,0,0,.87-.78l1,.79a3.8,3.8,0,0,1-3.19,1.47,4.07,4.07,0,0,1-1.55-.28,3.48,3.48,0,0,1-1.17-.8,3.65,3.65,0,0,1-.73-1.2,4.08,4.08,0,0,1-.26-1.5,3.89,3.89,0,0,1,.28-1.5,3.77,3.77,0,0,1,.78-1.2,3.58,3.58,0,0,1,1.17-.8,3.87,3.87,0,0,1,1.49-.28,3.6,3.6,0,0,1,1.62.33,3.14,3.14,0,0,1,1.09.87,3.42,3.42,0,0,1,.61,1.22,4.92,4.92,0,0,1,.19,1.37v.49Zm4.31-1.09a2.74,2.74,0,0,0-.14-.84,2,2,0,0,0-.39-.66,1.74,1.74,0,0,0-.64-.44,2.31,2.31,0,0,0-.91-.16,2.17,2.17,0,0,0-.92.19,2.25,2.25,0,0,0-.7.49,2.12,2.12,0,0,0-.45.68,1.8,1.8,0,0,0-.16.74Z"/><path class="cls-1" d="M117.3,50.48h1.37v1.11h0a2,2,0,0,1,.9-.94,2.91,2.91,0,0,1,1.47-.35,3.32,3.32,0,0,1,1,.15,2.28,2.28,0,0,1,1.4,1.36,3.31,3.31,0,0,1,.22,1.24v4.63h-1.37V53.43a2.38,2.38,0,0,0-.14-.86,1.59,1.59,0,0,0-.36-.58,1.45,1.45,0,0,0-.53-.32,1.81,1.81,0,0,0-.61-.1,2.22,2.22,0,0,0-.79.14,1.54,1.54,0,0,0-.64.43,2.11,2.11,0,0,0-.43.75,3.52,3.52,0,0,0-.15,1.08v3.71H117.3Z"/><path class="cls-1" d="M130,51.66h-2v3.27c0,.2,0,.4,0,.6a1.42,1.42,0,0,0,.12.53.76.76,0,0,0,.3.38,1,1,0,0,0,.6.15,2.92,2.92,0,0,0,.5-.05,1.2,1.2,0,0,0,.47-.17v1.25a1.68,1.68,0,0,1-.63.19,4,4,0,0,1-.6,0,2.72,2.72,0,0,1-1.22-.22,1.43,1.43,0,0,1-.64-.57,1.7,1.7,0,0,1-.24-.78,8.44,8.44,0,0,1,0-.87V51.66h-1.58V50.48h1.58v-2h1.37v2h2Z"/><path class="cls-1" d="M136.91,51.36a3.71,3.71,0,0,1,1.34-.8,4.46,4.46,0,0,1,1.52-.26,4.25,4.25,0,0,1,1.36.19,2.61,2.61,0,0,1,.93.53,2.12,2.12,0,0,1,.54.77,2.34,2.34,0,0,1,.18.91v3.67c0,.26,0,.49,0,.7s0,.42.05.61h-1.22c0-.36,0-.73,0-1.09h0a2.8,2.8,0,0,1-1.08,1,3.47,3.47,0,0,1-1.45.28,3.42,3.42,0,0,1-1-.13,2.28,2.28,0,0,1-.79-.41,2,2,0,0,1-.54-.68,2.12,2.12,0,0,1-.2-.93,2,2,0,0,1,.31-1.17,2.35,2.35,0,0,1,.85-.77,4.15,4.15,0,0,1,1.26-.43,9.43,9.43,0,0,1,1.55-.13h1v-.3a1.54,1.54,0,0,0-.11-.55,1.3,1.3,0,0,0-.32-.49,1.4,1.4,0,0,0-.53-.35,1.92,1.92,0,0,0-.76-.13,2.42,2.42,0,0,0-.69.08,2.63,2.63,0,0,0-.54.19,2.13,2.13,0,0,0-.44.26l-.38.29Zm3.86,2.86a8.58,8.58,0,0,0-1,.05,3.65,3.65,0,0,0-.92.2,2,2,0,0,0-.69.43,1,1,0,0,0-.26.7,1,1,0,0,0,.42.9,2,2,0,0,0,1.13.27,2.12,2.12,0,0,0,1-.19,1.79,1.79,0,0,0,.64-.49,1.84,1.84,0,0,0,.35-.68,2.71,2.71,0,0,0,.11-.74v-.45Z"/><path class="cls-1" d="M150.35,52.39a3.1,3.1,0,0,0-.8-.6,2.35,2.35,0,0,0-1-.2,2.32,2.32,0,0,0-1,.2,2.14,2.14,0,0,0-.7.56,2.65,2.65,0,0,0-.42.82,3.17,3.17,0,0,0-.15,1,2.75,2.75,0,0,0,.17,1,2.36,2.36,0,0,0,.47.78,2.14,2.14,0,0,0,.73.53,2.42,2.42,0,0,0,1,.19,2.19,2.19,0,0,0,1-.21,2.45,2.45,0,0,0,.76-.6l1,1a3.24,3.24,0,0,1-1.24.85,4.37,4.37,0,0,1-1.5.25,4.15,4.15,0,0,1-1.52-.27,3.49,3.49,0,0,1-1.2-.77,3.4,3.4,0,0,1-.77-1.18,4.17,4.17,0,0,1-.28-1.53,4.26,4.26,0,0,1,.28-1.54,3.72,3.72,0,0,1,.76-1.2,3.62,3.62,0,0,1,1.19-.78,4,4,0,0,1,1.54-.28,4.14,4.14,0,0,1,1.52.28,3.34,3.34,0,0,1,1.25.86Z"/><path class="cls-1" d="M156.81,51.66h-2v3.27c0,.2,0,.4,0,.6a1.66,1.66,0,0,0,.11.53.83.83,0,0,0,.31.38,1,1,0,0,0,.6.15,2.92,2.92,0,0,0,.5-.05,1.26,1.26,0,0,0,.47-.17v1.25a1.68,1.68,0,0,1-.63.19,4,4,0,0,1-.6,0,2.69,2.69,0,0,1-1.22-.22,1.43,1.43,0,0,1-.64-.57,1.7,1.7,0,0,1-.24-.78,8.44,8.44,0,0,1,0-.87V51.66H151.9V50.48h1.58v-2h1.37v2h2Z"/><path class="cls-1" d="M158.78,47.89a.94.94,0,0,1,.3-.7,1,1,0,0,1,1.41,0,.94.94,0,0,1,.3.7,1,1,0,0,1-2,0Zm.32,2.59h1.37v7.2H159.1Z"/><path class="cls-1" d="M162.2,50.48h1.58L165.94,56,168,50.48h1.46l-2.83,7.2h-1.5Z"/><path class="cls-1" d="M170.88,47.89a1,1,0,0,1,1-1,1,1,0,0,1,.71.3.94.94,0,0,1,.3.7,1,1,0,0,1-1,1,.94.94,0,0,1-.7-.3A1,1,0,0,1,170.88,47.89Zm.32,2.59h1.37v7.2H171.2Z"/><path class="cls-1" d="M179,52.29a2.09,2.09,0,0,0-.6-.51,1.71,1.71,0,0,0-.88-.21,1.64,1.64,0,0,0-.84.21.64.64,0,0,0-.36.6.66.66,0,0,0,.21.51,1.44,1.44,0,0,0,.48.32,3.82,3.82,0,0,0,.6.19l.55.1a6.71,6.71,0,0,1,.83.26,2.13,2.13,0,0,1,.67.4,1.63,1.63,0,0,1,.44.59,2,2,0,0,1,.16.85,2,2,0,0,1-.26,1,2.07,2.07,0,0,1-.67.71,2.77,2.77,0,0,1-.93.39,4.79,4.79,0,0,1-1.06.12,4.2,4.2,0,0,1-1.57-.27,2.83,2.83,0,0,1-1.21-1l1-.85a4.34,4.34,0,0,0,.75.59,1.83,1.83,0,0,0,1,.26,2.31,2.31,0,0,0,.52-.06,1.69,1.69,0,0,0,.48-.16,1.32,1.32,0,0,0,.33-.29.65.65,0,0,0,.13-.41.69.69,0,0,0-.19-.5,1.49,1.49,0,0,0-.46-.31,4.09,4.09,0,0,0-.56-.18l-.52-.11a8.37,8.37,0,0,1-.84-.25,2.57,2.57,0,0,1-.7-.36,1.7,1.7,0,0,1-.48-.58,1.75,1.75,0,0,1-.19-.87,2,2,0,0,1,.24-1,2.16,2.16,0,0,1,.62-.69,2.85,2.85,0,0,1,.88-.41,3.76,3.76,0,0,1,1-.13,3.71,3.71,0,0,1,1.4.27,2.18,2.18,0,0,1,1.06.91Z"/><path class="cls-1" d="M182.34,50.48h1.28V51.6h0a1.27,1.27,0,0,1,.23-.38,2.32,2.32,0,0,1,.49-.43,3.05,3.05,0,0,1,.7-.35,2.52,2.52,0,0,1,.89-.14,2.55,2.55,0,0,1,1.35.33,2.45,2.45,0,0,1,.9,1,2.28,2.28,0,0,1,1-1,2.75,2.75,0,0,1,1.29-.33,3,3,0,0,1,1.37.27,2.16,2.16,0,0,1,.83.72,2.72,2.72,0,0,1,.42,1,5.69,5.69,0,0,1,.11,1.18v4.19h-1.36v-4a5.06,5.06,0,0,0-.06-.79,1.77,1.77,0,0,0-.22-.67,1.22,1.22,0,0,0-.47-.46,1.55,1.55,0,0,0-.8-.18,1.61,1.61,0,0,0-1.42.61,2.72,2.72,0,0,0-.42,1.57v3.93H187.1V53.91a8.9,8.9,0,0,0,0-.94,2.29,2.29,0,0,0-.22-.74,1.1,1.1,0,0,0-.45-.48,1.55,1.55,0,0,0-.8-.18,1.78,1.78,0,0,0-.71.15,1.58,1.58,0,0,0-.6.43,2.1,2.1,0,0,0-.41.74,3.32,3.32,0,0,0-.15,1v3.74h-1.37Z"/><path class="cls-1" d="M200.44,52.3a2.67,2.67,0,0,1,.22-1,2.76,2.76,0,0,1,.57-.85,3,3,0,0,1,.86-.58,2.71,2.71,0,0,1,2.09,0,2.84,2.84,0,0,1,.85.58,2.62,2.62,0,0,1,.58.85,2.66,2.66,0,0,1,.21,1,2.59,2.59,0,0,1-.21,1.05,2.62,2.62,0,0,1-.58.85,2.67,2.67,0,0,1-.85.58,2.71,2.71,0,0,1-2.09,0,2.83,2.83,0,0,1-.86-.58,2.76,2.76,0,0,1-.57-.85A2.6,2.6,0,0,1,200.44,52.3Z"/><path class="cls-1" d="M218.2,52.39a3.1,3.1,0,0,0-.8-.6,2.35,2.35,0,0,0-1-.2,2.32,2.32,0,0,0-1,.2,2.14,2.14,0,0,0-.7.56,2.65,2.65,0,0,0-.42.82,3.17,3.17,0,0,0-.15,1,2.75,2.75,0,0,0,.17,1,2.36,2.36,0,0,0,.47.78,2.14,2.14,0,0,0,.73.53,2.45,2.45,0,0,0,1,.19,2.19,2.19,0,0,0,1-.21,2.45,2.45,0,0,0,.76-.6l1,1a3.17,3.17,0,0,1-1.24.85,4.37,4.37,0,0,1-1.5.25,4.15,4.15,0,0,1-1.52-.27,3.58,3.58,0,0,1-1.2-.77,3.4,3.4,0,0,1-.77-1.18,4.17,4.17,0,0,1-.28-1.53,4.26,4.26,0,0,1,.28-1.54,3.44,3.44,0,0,1,1.95-2,4,4,0,0,1,1.54-.28,4.14,4.14,0,0,1,1.52.28,3.26,3.26,0,0,1,1.25.86Z"/><path class="cls-1" d="M220.58,47.89a.94.94,0,0,1,.3-.7,1,1,0,0,1,.71-.3,1,1,0,0,1,1,1,1,1,0,0,1-.3.71.94.94,0,0,1-.7.3,1,1,0,0,1-1-1Zm.32,2.59h1.37v7.2H220.9Z"/><path class="cls-1" d="M224,50.48h1.58L227.74,56l2.07-5.51h1.46l-2.83,7.2h-1.5Z"/><path class="cls-1" d="M232.68,47.89a.94.94,0,0,1,.3-.7,1,1,0,0,1,1.41,0,.94.94,0,0,1,.3.7,1,1,0,0,1-2,0Zm.32,2.59h1.37v7.2H233Z"/><path class="cls-1" d="M237.07,46.19h1.37V57.68h-1.37Z"/><path class="cls-1" d="M245.69,50.48h1.37v1.11h0a1.75,1.75,0,0,1,.37-.53,2.5,2.5,0,0,1,.51-.4,2.82,2.82,0,0,1,.61-.27,2.57,2.57,0,0,1,.67-.09,2,2,0,0,1,.61.09l-.06,1.47-.34-.08a1.84,1.84,0,0,0-.33,0,2,2,0,0,0-1.54.57,2.46,2.46,0,0,0-.53,1.74v3.62h-1.37Z"/><path class="cls-1" d="M251.53,47.89a1,1,0,0,1,1-1,1,1,0,0,1,.71.3.94.94,0,0,1,.3.7,1,1,0,0,1-1,1,.94.94,0,0,1-.7-.3A1,1,0,0,1,251.53,47.89Zm.32,2.59h1.37v7.2h-1.37Z"/><path class="cls-1" d="M263,57.62a4,4,0,0,1-.28,1.5,3.53,3.53,0,0,1-.8,1.17,3.76,3.76,0,0,1-1.25.77,4.61,4.61,0,0,1-1.61.27,6,6,0,0,1-1.89-.29,4.59,4.59,0,0,1-1.64-1l.93-1.16a3.8,3.8,0,0,0,1.16.88,3.32,3.32,0,0,0,1.41.29,3.06,3.06,0,0,0,1.26-.22,2,2,0,0,0,1.22-1.36,3.56,3.56,0,0,0,.12-.91V56.5h-.05a2.42,2.42,0,0,1-1.07,1,3.3,3.3,0,0,1-1.42.31,3.74,3.74,0,0,1-1.47-.28,3.46,3.46,0,0,1-1.16-.77,3.58,3.58,0,0,1-.76-1.17,3.92,3.92,0,0,1-.27-1.47,4,4,0,0,1,.26-1.48,3.4,3.4,0,0,1,1.89-2,3.83,3.83,0,0,1,1.51-.28,3.37,3.37,0,0,1,1.42.31,2.77,2.77,0,0,1,1.09.9h0v-1H263Zm-3.74-6a2.4,2.4,0,0,0-1,.19,2.34,2.34,0,0,0-.75.52,2.3,2.3,0,0,0-.47.79,3,3,0,0,0-.16,1,2.46,2.46,0,0,0,.63,1.76,2.32,2.32,0,0,0,1.74.66,2.3,2.3,0,0,0,1.73-.66,2.43,2.43,0,0,0,.64-1.76,3,3,0,0,0-.17-1,2.3,2.3,0,0,0-.47-.79,2.14,2.14,0,0,0-.75-.52A2.38,2.38,0,0,0,259.3,51.57Z"/><path class="cls-1" d="M265.53,46.19h1.37v5.4h0a2,2,0,0,1,.89-.94,3,3,0,0,1,1.48-.35,3.25,3.25,0,0,1,1,.15,2.38,2.38,0,0,1,.84.5,2.31,2.31,0,0,1,.57.86,3.32,3.32,0,0,1,.21,1.24v4.63h-1.36V53.43a2.38,2.38,0,0,0-.14-.86A1.49,1.49,0,0,0,270,52a1.33,1.33,0,0,0-.52-.32,1.83,1.83,0,0,0-.62-.1,2.3,2.3,0,0,0-.79.14,1.58,1.58,0,0,0-.63.43,2,2,0,0,0-.43.75A3.52,3.52,0,0,0,266.9,54v3.71h-1.37Z"/><path class="cls-1" d="M278.27,51.66h-2v3.27c0,.2,0,.4,0,.6a1.66,1.66,0,0,0,.11.53.83.83,0,0,0,.31.38,1,1,0,0,0,.6.15,2.92,2.92,0,0,0,.5-.05,1.26,1.26,0,0,0,.47-.17v1.25a1.68,1.68,0,0,1-.63.19,4,4,0,0,1-.6,0,2.69,2.69,0,0,1-1.22-.22,1.43,1.43,0,0,1-.64-.57,1.7,1.7,0,0,1-.24-.78,8.44,8.44,0,0,1,0-.87V51.66h-1.58V50.48h1.58v-2h1.37v2h2Z"/><path class="cls-1" d="M284.29,52.29a2.09,2.09,0,0,0-.6-.51,1.71,1.71,0,0,0-.88-.21,1.64,1.64,0,0,0-.84.21.64.64,0,0,0-.36.6.66.66,0,0,0,.21.51,1.35,1.35,0,0,0,.48.32,3.82,3.82,0,0,0,.6.19l.55.1a6.71,6.71,0,0,1,.83.26,2.13,2.13,0,0,1,.67.4,1.76,1.76,0,0,1,.44.59,2.11,2.11,0,0,1,.16.85,2,2,0,0,1-.26,1,2.17,2.17,0,0,1-.67.71,2.86,2.86,0,0,1-.93.39,4.79,4.79,0,0,1-1.06.12,4.2,4.2,0,0,1-1.57-.27,2.78,2.78,0,0,1-1.21-1l1-.85a4,4,0,0,0,.75.59,1.83,1.83,0,0,0,1,.26,2.31,2.31,0,0,0,.52-.06,1.53,1.53,0,0,0,.47-.16,1.21,1.21,0,0,0,.34-.29.71.71,0,0,0,.13-.41.74.74,0,0,0-.19-.5,1.49,1.49,0,0,0-.46-.31,4.59,4.59,0,0,0-.56-.18l-.52-.11a8.37,8.37,0,0,1-.84-.25,2.57,2.57,0,0,1-.7-.36,1.73,1.73,0,0,1-.49-.58,1.87,1.87,0,0,1-.18-.87,2,2,0,0,1,.24-1,2,2,0,0,1,.62-.69,2.85,2.85,0,0,1,.88-.41,3.82,3.82,0,0,1,2.4.14,2.18,2.18,0,0,1,1.06.91Z"/><path class="cls-1" d="M288.57,59.69h-1.25L288.37,56h1.46Z"/><path class="cls-1" d="M300,48.59l-2,1.83-.86-1,3-2.48h1.29V57.68H300Z"/><path class="cls-1" d="M309.88,53.52h-.06a2.7,2.7,0,0,1-1.18.24,3.69,3.69,0,0,1-1.17-.2,3,3,0,0,1-1.08-.61,3.19,3.19,0,0,1-.78-1.07,3.58,3.58,0,0,1-.3-1.52,4,4,0,0,1,.29-1.56,3.35,3.35,0,0,1,.8-1.13,3.47,3.47,0,0,1,1.17-.7,4.46,4.46,0,0,1,1.43-.23,4.21,4.21,0,0,1,1.43.24,3.44,3.44,0,0,1,1.17.7,3.5,3.5,0,0,1,.8,1.09,3.36,3.36,0,0,1,.29,1.43,5.21,5.21,0,0,1-.07.92,5,5,0,0,1-.22.78,8.11,8.11,0,0,1-.34.74c-.14.24-.28.49-.45.74l-2.72,4.3h-1.71Zm1.35-3.27a2.62,2.62,0,0,0-.15-.9,2,2,0,0,0-.46-.7,2,2,0,0,0-.71-.47,2.52,2.52,0,0,0-1.82,0,2.15,2.15,0,0,0-.71.47,1.84,1.84,0,0,0-.45.7,2.4,2.4,0,0,0-.16.9,2.44,2.44,0,0,0,.16.9,1.84,1.84,0,0,0,.45.7,2.15,2.15,0,0,0,.71.47,2.67,2.67,0,0,0,1.82,0,2,2,0,0,0,.71-.47,2,2,0,0,0,.46-.7A2.66,2.66,0,0,0,311.23,50.25Z"/><path class="cls-1" d="M317,51.09h.06a2.57,2.57,0,0,1,1.18-.25,3.69,3.69,0,0,1,1.17.2,3,3,0,0,1,1.07.62,3.2,3.2,0,0,1,.79,1.06,3.6,3.6,0,0,1,.3,1.53,3.86,3.86,0,0,1-.3,1.57,3.19,3.19,0,0,1-.79,1.13,3.45,3.45,0,0,1-1.17.69,4.51,4.51,0,0,1-1.43.22,4.17,4.17,0,0,1-1.43-.24,3.29,3.29,0,0,1-1.17-.7,3.32,3.32,0,0,1-1.1-2.52,5,5,0,0,1,.08-.91,4,4,0,0,1,.22-.79,8,8,0,0,1,.34-.73l.44-.75,2.72-4.3h1.72Zm-1.36,3.26a2.57,2.57,0,0,0,.16.9,2.12,2.12,0,0,0,.46.71,2.18,2.18,0,0,0,.71.46,2.38,2.38,0,0,0,.91.17,2.42,2.42,0,0,0,.91-.17,2.29,2.29,0,0,0,.71-.46,2.1,2.1,0,0,0,.45-.71,2.58,2.58,0,0,0,0-1.79,2,2,0,0,0-.45-.71,2.12,2.12,0,0,0-.71-.46,2.24,2.24,0,0,0-.91-.17,2.21,2.21,0,0,0-.91.17,2,2,0,0,0-1.17,1.17A2.56,2.56,0,0,0,315.64,54.35Z"/><path class="cls-1" d="M323,52.3c0-.39,0-.8.07-1.23a7.43,7.43,0,0,1,.22-1.25,5.91,5.91,0,0,1,.42-1.18,3.46,3.46,0,0,1,.69-1,3.1,3.1,0,0,1,1-.67,3.25,3.25,0,0,1,1.33-.25,3.22,3.22,0,0,1,1.33.25,3.26,3.26,0,0,1,1,.67,3.46,3.46,0,0,1,.69,1,7.53,7.53,0,0,1,.64,2.43q.06.65.06,1.23a12.07,12.07,0,0,1-.15,1.83,6.3,6.3,0,0,1-.56,1.8,3.94,3.94,0,0,1-1.13,1.39,3.07,3.07,0,0,1-1.87.54,3,3,0,0,1-1.86-.54,3.84,3.84,0,0,1-1.13-1.39,6.3,6.3,0,0,1-.56-1.8A12.14,12.14,0,0,1,323,52.3Zm1.46,0c0,.36,0,.78.07,1.26a6.55,6.55,0,0,0,.3,1.41,3.08,3.08,0,0,0,.68,1.15,1.58,1.58,0,0,0,1.2.47,1.6,1.6,0,0,0,1.21-.47,3.08,3.08,0,0,0,.68-1.15,6.55,6.55,0,0,0,.3-1.41q.06-.72.06-1.26c0-.24,0-.52,0-.83a6.16,6.16,0,0,0-.11-.94,5.75,5.75,0,0,0-.23-.93,3.33,3.33,0,0,0-.4-.8,2,2,0,0,0-.62-.57,1.81,1.81,0,0,0-1.73,0,1.87,1.87,0,0,0-.62.57,3,3,0,0,0-.4.8,7,7,0,0,0-.24.93,7.7,7.7,0,0,0-.1.94C324.51,51.78,324.5,52.06,324.5,52.3Z"/><path class="cls-1" d="M335.68,54.64h-3.74V53.37h3.74Z"/><path class="cls-1" d="M340.74,48.59l-2,1.83-.85-1,3-2.48h1.3V57.68h-1.46Z"/><path class="cls-1" d="M350.62,53.52h-.06a2.75,2.75,0,0,1-1.19.24,3.78,3.78,0,0,1-1.17-.2,3.1,3.1,0,0,1-1.07-.61,3.19,3.19,0,0,1-.78-1.07,3.44,3.44,0,0,1-.31-1.52,3.81,3.81,0,0,1,.3-1.56,3.22,3.22,0,0,1,.8-1.13,3.29,3.29,0,0,1,1.17-.7,4.42,4.42,0,0,1,1.43-.23,4.15,4.15,0,0,1,1.42.24,3.59,3.59,0,0,1,1.18.7,3.32,3.32,0,0,1,.79,1.09,3.36,3.36,0,0,1,.3,1.43,5.17,5.17,0,0,1-.08.92,4.1,4.1,0,0,1-.22.78,6.09,6.09,0,0,1-.34.74c-.13.24-.28.49-.44.74l-2.72,4.3h-1.72ZM352,50.25a2.4,2.4,0,0,0-.16-.9,2.11,2.11,0,0,0-.45-.7,2.15,2.15,0,0,0-.71-.47,2.55,2.55,0,0,0-1.83,0,2.1,2.1,0,0,0-.7.47,2,2,0,0,0-.46.7,2.4,2.4,0,0,0-.16.9,2.44,2.44,0,0,0,.16.9,2,2,0,0,0,.46.7,2.1,2.1,0,0,0,.7.47,2.7,2.7,0,0,0,1.83,0,2.15,2.15,0,0,0,.71-.47,2.11,2.11,0,0,0,.45-.7A2.44,2.44,0,0,0,352,50.25Z"/><path class="cls-1" d="M357.73,51.09h.06a2.61,2.61,0,0,1,1.19-.25,3.78,3.78,0,0,1,1.17.2,3.12,3.12,0,0,1,1.07.62,3,3,0,0,1,.78,1.06,3.6,3.6,0,0,1,.31,1.53,3.86,3.86,0,0,1-.3,1.57,3.22,3.22,0,0,1-.8,1.13,3.27,3.27,0,0,1-1.17.69,4.42,4.42,0,0,1-1.43.22,4.25,4.25,0,0,1-1.43-.24,3.47,3.47,0,0,1-1.17-.7,3.36,3.36,0,0,1-1.09-2.52,4.22,4.22,0,0,1,.08-.91,4,4,0,0,1,.22-.79,6,6,0,0,1,.34-.73l.44-.75,2.72-4.3h1.72Zm-1.35,3.26a2.36,2.36,0,0,0,.16.9A2.1,2.1,0,0,0,357,56a2.29,2.29,0,0,0,.71.46,2.42,2.42,0,0,0,.91.17,2.38,2.38,0,0,0,.91-.17,2.18,2.18,0,0,0,.71-.46,2.12,2.12,0,0,0,.46-.71,2.58,2.58,0,0,0,0-1.79,2,2,0,0,0-1.17-1.17,2.21,2.21,0,0,0-.91-.17,2.24,2.24,0,0,0-.91.17,2.12,2.12,0,0,0-.71.46,2,2,0,0,0-.45.71A2.35,2.35,0,0,0,356.38,54.35Z"/><path class="cls-1" d="M366.61,51.09h.06a2.58,2.58,0,0,1,1.19-.25A3.68,3.68,0,0,1,369,51a3.11,3.11,0,0,1,1.86,1.68,3.6,3.6,0,0,1,.3,1.53,4,4,0,0,1-.29,1.57,3.35,3.35,0,0,1-.8,1.13,3.45,3.45,0,0,1-1.17.69,4.46,4.46,0,0,1-1.43.22,4.21,4.21,0,0,1-1.43-.24,3.38,3.38,0,0,1-1.17-.7,3.27,3.27,0,0,1-1.09-2.52,5,5,0,0,1,.07-.91,4.82,4.82,0,0,1,.22-.79,8,8,0,0,1,.34-.73c.14-.23.28-.48.45-.75l2.72-4.3h1.71Zm-1.35,3.26a2.57,2.57,0,0,0,.15.9,2.12,2.12,0,0,0,.46.71,2.18,2.18,0,0,0,.71.46,2.52,2.52,0,0,0,1.82,0,2.18,2.18,0,0,0,.71-.46,2.12,2.12,0,0,0,.46-.71,2.75,2.75,0,0,0,0-1.79,2,2,0,0,0-1.17-1.17,2.52,2.52,0,0,0-1.82,0,2,2,0,0,0-1.17,1.17A2.56,2.56,0,0,0,365.26,54.35Z"/><path class="cls-1" d="M30.75,0A30.75,30.75,0,1,0,61.5,30.75,30.75,30.75,0,0,0,30.75,0Zm0,58.83a9.93,9.93,0,1,1,9.93-9.93A9.94,9.94,0,0,1,30.75,58.83Z"/></g></g></svg>