<svg xmlns="http://www.w3.org/2000/svg" viewBox="0 0 388.24 122.51"><defs><style>.cls-1{fill:#4d6a6d;}</style></defs><title>logo_sansSerif</title><g id="Layer_2" data-name="Layer 2"><g id="Layer_1-2" data-name="Layer 1"><path class="cls-1" d="M5.5,7.08c0-2.95,3-3.93,5.38-3.93a9.36,9.36,0,0,1,6.55,2.69V1A20.06,20.06,0,0,0,11.2.07C6.09.07.72,2.17.72,7.54c0,9.11,14.35,7.93,14.35,14.61,0,3-3.6,4.46-6,4.46A14.13,14.13,0,0,1,0,23.07l1.18,5.37a20.56,20.56,0,0,0,7.47,1.31c6.49,0,11.2-4.32,11.2-8.91C19.85,12.91,5.5,13,5.5,7.08Z"/><path class="cls-1" d="M55,.86c3.28,1.18,1.9,4.65,1.11,7.07L51.44,23.66,45.67,5.05A9.8,9.8,0,0,1,45,.72H39.12V.86c2.29,1.18,1.44,4,.65,6.61L34.92,23.79,28.7,3.87A7.89,7.89,0,0,1,28.18.79h-6.1V.92c2.1,1.44,2.69,4.26,3.47,6.62L30.47,23.4c1.37,4.45,1.77,4.12,5.57,6.94L42.53,8.59,47.11,23.4c1.38,4.45,1.64,4.19,5.51,6.94L61.4.72H55V.86Z"/><path class="cls-1" d="M87.08,22.81,78.43.72H71.81V.86c2,.65,1.18,2.42.66,4l-7,18c-.91,2.42-1.63,4.85-4.06,6.09V29h7.67V28.9c-2-.79-1.71-2-.85-4.46l2.16-6.09H80.92l2.23,6.09c1.11,3,1.44,3.48-.59,4.46V29h8.58V28.9C88.78,27.66,88.06,25.3,87.08,22.81ZM71.55,15.27,75.68,4.46l4.06,10.81Z"/><path class="cls-1" d="M111.65,23l-6-7.79c3.41-.86,6.62-3.8,6.62-7.54,0-3.93-3-6.95-8.65-6.95h-10V.86c2.1.78,1.84,3.93,1.84,6V23c0,2,.26,5.11-1.84,5.9V29h8V28.9c-2.1-.79-1.9-3.93-1.9-5.9V3.74a14,14,0,0,1,2.82-.33c2.81-.13,5.37,1.71,5.37,4.78,0,4.07-3.87,5.64-7.21,6.16l3.87,6.1,5.11,6.48a5.44,5.44,0,0,0,4.85,2.17h3.86A29.85,29.85,0,0,1,111.65,23Z"/><path class="cls-1" d="M137.53.72H121A4.17,4.17,0,0,1,119.38.4h-.13l-1.44,5.11h.13a7.09,7.09,0,0,1,5-1.71h3.67V23c0,2,.26,5.05-1.83,5.9V29H133V28.9c-2.22-1.31-2.16-3-2.16-5.44V3.87h3.74c1.37,0,3,.2,3.6,1.7h.13L139.63.46h-.13A4.81,4.81,0,0,1,137.53.72Z"/><path class="cls-1" d="M165,.86c2.1.78,1.83,3.93,1.83,6v5.31H151.75V6.82c0-2-.26-5.11,1.84-6V.72h-7.93V.86c2.1.78,1.83,3.93,1.83,5.89V23c0,2,.27,5.05-1.83,5.9V29h8V28.9c-2.09-.79-1.83-3.93-1.83-5.9V15.27h15.07v7.8c0,2,.26,5-1.84,5.9v.13h8V29c-2.1-.79-1.9-3.94-1.9-5.9V6.75c0-2-.26-5,1.9-5.89V.72h-8V.86Z"/><path class="cls-1" d="M216.49,24.58l-2.75-21.1c0-1,.26-2.23,1.31-2.56V.79h-7.21V.86a6.76,6.76,0,0,1-.65,2.68l-6.95,18.22L192.38,2.82a4.93,4.93,0,0,1-.59-2V.79h-7.27V.92c1.9,1,1.44,2.82,1.31,4l-2.36,18c-.33,2.36-.59,4.46-2.36,6V29h6.81V28.9c-2-.92-1.7-2.82-1.31-5.44L189,5l7.93,19.4a10.1,10.1,0,0,0,3.67,5.18l9.37-24.64,2.36,20.7c0,1.45-.26,2.76-1.71,3.21V29h8.06v-.14C217,27.72,216.75,26.54,216.49,24.58Z"/><path class="cls-1" d="M239.36,0A15,15,0,0,0,223.7,14.81c0,8.85,6.94,14.94,15.2,14.94a15.05,15.05,0,0,0,15.33-15.13A14.55,14.55,0,0,0,239.36,0Zm-.2,26.67c-6.55,0-10.68-6.16-10.68-12.19,0-6.48,4.13-11.33,10.62-11.33s10.48,6.09,10.48,12.32C249.52,21.89,245.45,26.67,239.16,26.67Z"/><path class="cls-1" d="M278.15,23l-6-7.79c3.41-.86,6.62-3.8,6.62-7.54,0-3.93-3-6.95-8.65-6.95h-10V.86c2.1.78,1.83,3.93,1.83,6V23c0,2,.27,5.11-1.83,5.9V29h8V28.9c-2.09-.79-1.9-3.93-1.9-5.9V3.74A14.13,14.13,0,0,1,269,3.41c2.82-.13,5.37,1.71,5.37,4.78,0,4.07-3.86,5.64-7.2,6.16l3.86,6.1,5.11,6.48A5.45,5.45,0,0,0,281,29.1h3.87A29.85,29.85,0,0,1,278.15,23Z"/><path class="cls-1" d="M299.31,26l-5.3-.52V15.27h3.08c1.31,0,3-.06,3.73,1.18H301V11.86h-.13a4,4,0,0,1-1.83.27h-5v-8a22.58,22.58,0,0,1,4.26-.33c1.9,0,3.6.2,4.91,1.71h.13v-5h-.13a3.8,3.8,0,0,1-2,.2H287.85V.79c2.09.79,1.9,3.93,1.9,6V22.94c0,2,.26,5.11-1.9,5.89V29h17.36l1.9-5.64H307A9.77,9.77,0,0,1,299.31,26Z"/><line class="cls-1" x1="24.57" y1="97.18" x2="190.04" y2="97.18"/><rect class="cls-1" x="24.57" y="96.62" width="165.47" height="1.12"/><line class="cls-1" x1="2.17" y1="109.85" x2="387.38" y2="109.85"/><rect class="cls-1" x="2.17" y="109.35" width="385.2" height="1"/><line class="cls-1" x1="37.36" y1="122.01" x2="308.74" y2="122.01"/><rect class="cls-1" x="37.36" y="121.51" width="271.38" height="1"/><path class="cls-1" d="M95.29,47.73h4.8V78h-4.8Z"/><path class="cls-1" d="M106.85,52.25a2.74,2.74,0,0,1,.86-2,3,3,0,0,1,2.18-.86,3.16,3.16,0,0,1,2.22.82,2.81,2.81,0,0,1,0,4.12,3.16,3.16,0,0,1-2.22.82,3,3,0,0,1-2.18-.86A2.74,2.74,0,0,1,106.85,52.25Zm.68,6.52h4.8V78h-4.8Z"/><path class="cls-1" d="M117.05,58.77h5.24l5.12,13.44h.08l5.16-13.44h4.92L130,78h-5.12Z"/><path class="cls-1" d="M141.61,52.25a2.74,2.74,0,0,1,.86-2,3,3,0,0,1,2.18-.86,3.16,3.16,0,0,1,2.22.82,2.81,2.81,0,0,1,0,4.12,3.16,3.16,0,0,1-2.22.82,3,3,0,0,1-2.18-.86A2.74,2.74,0,0,1,141.61,52.25Zm.68,6.52h4.8V78h-4.8Z"/><path class="cls-1" d="M154.41,58.77H159v3.08h.08a6.67,6.67,0,0,1,2.08-2.5,6.12,6.12,0,0,1,3.8-1.06,7.64,7.64,0,0,1,3.26.64A6.08,6.08,0,0,1,171.57,63a11.05,11.05,0,0,1,.36,2.84V78h-4.8V68.25c0-.53,0-1.13-.08-1.78a6.86,6.86,0,0,0-.42-1.84,3.52,3.52,0,0,0-1.06-1.44,3,3,0,0,0-2-.58,4.66,4.66,0,0,0-2,.4,3.93,3.93,0,0,0-1.36,1.08,4.24,4.24,0,0,0-.78,1.56,7,7,0,0,0-.24,1.84V78h-4.8Z"/><path class="cls-1" d="M198.93,58.77V76.25a16.34,16.34,0,0,1-.64,4.7,9.16,9.16,0,0,1-2,3.56,9,9,0,0,1-3.38,2.26,13.33,13.33,0,0,1-4.84.8,18.79,18.79,0,0,1-5.09-.68,11.34,11.34,0,0,1-4.43-2.48l2.88-3.92a11.73,11.73,0,0,0,3,2,8.51,8.51,0,0,0,3.6.72,7.75,7.75,0,0,0,2.9-.48,4.76,4.76,0,0,0,1.88-1.32,5.11,5.11,0,0,0,1-2,10.65,10.65,0,0,0,.3-2.62v-1.4h-.08a6.46,6.46,0,0,1-2.76,2.1,9.25,9.25,0,0,1-3.52.7,9.56,9.56,0,0,1-3.92-.78,9.3,9.3,0,0,1-3-2.1,9.09,9.09,0,0,1-1.94-3.12,10.63,10.63,0,0,1-.68-3.84,11.92,11.92,0,0,1,.64-4,9,9,0,0,1,1.88-3.2,8.81,8.81,0,0,1,3-2.14,9.61,9.61,0,0,1,4-.78,9.15,9.15,0,0,1,3.8.8,6.22,6.22,0,0,1,2.8,2.56h.08V58.77Zm-10.24,3.84a6.11,6.11,0,0,0-2.32.42,5.23,5.23,0,0,0-1.78,1.16,5.08,5.08,0,0,0-1.16,1.8,6.33,6.33,0,0,0-.43,2.34,5.55,5.55,0,0,0,.43,2.16,5.29,5.29,0,0,0,1.18,1.76,5.36,5.36,0,0,0,1.8,1.2,5.56,5.56,0,0,0,2.24.44,6,6,0,0,0,2.38-.44,5.63,5.63,0,0,0,1.8-1.18A5,5,0,0,0,194,70.49a6.11,6.11,0,0,0,.41-2.24,5.61,5.61,0,0,0-1.52-4.08A5.55,5.55,0,0,0,188.69,62.61Z"/><path class="cls-1" d="M224.6,61.45h.08a5.68,5.68,0,0,1,2-2.18,6.35,6.35,0,0,1,3.66-1,7.61,7.61,0,0,1,3.26.64,6.18,6.18,0,0,1,2.18,1.68A6.31,6.31,0,0,1,237,63a11.05,11.05,0,0,1,.36,2.84V78h-4.8V68.25c0-.53,0-1.13-.08-1.78a6.18,6.18,0,0,0-.42-1.84A3.43,3.43,0,0,0,231,63.19a3,3,0,0,0-2-.58,4.69,4.69,0,0,0-2,.4,4,4,0,0,0-1.36,1.08,4.24,4.24,0,0,0-.78,1.56,7,7,0,0,0-.24,1.84V78h-4.8V47.73h4.8Z"/><path class="cls-1" d="M244,52.25a2.75,2.75,0,0,1,.87-2,3,3,0,0,1,2.17-.86,3.14,3.14,0,0,1,2.22.82,2.79,2.79,0,0,1,0,4.12,3.14,3.14,0,0,1-2.22.82,3,3,0,0,1-2.17-.86A2.75,2.75,0,0,1,244,52.25Zm.68,6.52h4.8V78h-4.8Z"/><path class="cls-1" d="M267,64.09a4.37,4.37,0,0,0-3.76-2,4,4,0,0,0-1.88.48,1.64,1.64,0,0,0-.92,1.56,1.36,1.36,0,0,0,.76,1.28,8.5,8.5,0,0,0,1.92.68l2.5.58a9.82,9.82,0,0,1,2.5.92,5.33,5.33,0,0,1,1.92,1.7,5,5,0,0,1,.76,3,5.3,5.3,0,0,1-.74,2.9,5.72,5.72,0,0,1-1.92,1.9,8.35,8.35,0,0,1-2.66,1,14.12,14.12,0,0,1-3,.32,12.67,12.67,0,0,1-4.12-.64A7.89,7.89,0,0,1,255,75.49l3.2-3a9.43,9.43,0,0,0,2,1.7,4.8,4.8,0,0,0,2.58.66,5.1,5.1,0,0,0,1.08-.12,3.35,3.35,0,0,0,1-.4,2.52,2.52,0,0,0,.78-.7,1.65,1.65,0,0,0,.3-1,1.62,1.62,0,0,0-.76-1.48,6.61,6.61,0,0,0-1.92-.78c-.77-.2-1.6-.38-2.5-.56a9.56,9.56,0,0,1-2.5-.84,5.37,5.37,0,0,1-1.92-1.62,4.83,4.83,0,0,1-.76-2.88,5.6,5.6,0,0,1,.66-2.78A5.8,5.8,0,0,1,258,59.77a7.48,7.48,0,0,1,2.48-1.12,11.32,11.32,0,0,1,6.64.3,6.14,6.14,0,0,1,3,2.26Z"/><path class="cls-1" d="M274.08,62.85V58.77h4V53.21h4.8v5.56h5.28v4.08h-5.28v8.4a4.18,4.18,0,0,0,.54,2.28,2.37,2.37,0,0,0,2.14.84,8,8,0,0,0,1.4-.14,2.9,2.9,0,0,0,1.2-.46v4a6,6,0,0,1-1.86.5,16.21,16.21,0,0,1-1.94.14,9.85,9.85,0,0,1-3.14-.42,4.2,4.2,0,0,1-1.92-1.28,5,5,0,0,1-1-2.14,15.22,15.22,0,0,1-.26-3v-8.8Z"/><path class="cls-1" d="M292.72,68.37a10.27,10.27,0,0,1,.82-4.14A9.54,9.54,0,0,1,299.08,59a11.92,11.92,0,0,1,8.16,0,9.75,9.75,0,0,1,3.32,2,9.49,9.49,0,0,1,2.22,3.18,10.86,10.86,0,0,1,0,8.28,9.49,9.49,0,0,1-2.22,3.18,9.75,9.75,0,0,1-3.32,2,11.92,11.92,0,0,1-8.16,0,9.54,9.54,0,0,1-5.54-5.22A10.27,10.27,0,0,1,292.72,68.37Zm4.8,0a6.3,6.3,0,0,0,.38,2.16A5.58,5.58,0,0,0,299,72.37a5.75,5.75,0,0,0,1.78,1.28,6,6,0,0,0,4.72,0,5.52,5.52,0,0,0,1.78-1.28,5.27,5.27,0,0,0,1.12-1.84,6.33,6.33,0,0,0,0-4.32,5.27,5.27,0,0,0-1.12-1.84,5.48,5.48,0,0,0-4.14-1.76,5.59,5.59,0,0,0-2.36.48A5.75,5.75,0,0,0,299,64.37a5.58,5.58,0,0,0-1.12,1.84A6.3,6.3,0,0,0,297.52,68.37Z"/><path class="cls-1" d="M319.88,58.77h4.8v3h.08a6.1,6.1,0,0,1,2.28-2.6,6.34,6.34,0,0,1,3.4-.92,4.82,4.82,0,0,1,.86.08c.28.05.57.12.86.2v4.64c-.4-.11-.79-.19-1.18-.26a6.35,6.35,0,0,0-1.14-.1,5.19,5.19,0,0,0-2.7.62,4.92,4.92,0,0,0-1.56,1.42,4.72,4.72,0,0,0-.72,1.6,6,6,0,0,0-.18,1.2V78h-4.8Z"/><path class="cls-1" d="M336.64,52.25a2.78,2.78,0,0,1,.86-2,3,3,0,0,1,2.18-.86,3.16,3.16,0,0,1,2.22.82,2.81,2.81,0,0,1,0,4.12,3.16,3.16,0,0,1-2.22.82,3,3,0,0,1-2.18-.86A2.78,2.78,0,0,1,336.64,52.25Zm.68,6.52h4.8V78h-4.8Z"/><path class="cls-1" d="M353.28,70.05A4.88,4.88,0,0,0,355,73.41a5.26,5.26,0,0,0,3.48,1.2,5.75,5.75,0,0,0,3-.74A8.25,8.25,0,0,0,363.6,72l3.44,2.6a9.73,9.73,0,0,1-3.76,3,11,11,0,0,1-4.36.88,11.52,11.52,0,0,1-4.08-.72,9.54,9.54,0,0,1-5.54-5.22,10.86,10.86,0,0,1,0-8.28A9.54,9.54,0,0,1,354.84,59a11.52,11.52,0,0,1,4.08-.72,9.29,9.29,0,0,1,3.66.7,7.89,7.89,0,0,1,2.84,2,9.31,9.31,0,0,1,1.84,3.26,13.82,13.82,0,0,1,.66,4.46v1.32Zm9.84-3.6a4.51,4.51,0,0,0-1.32-3.34,5,5,0,0,0-3.56-1.22,4.65,4.65,0,0,0-3.42,1.24,5.55,5.55,0,0,0-1.54,3.32Z"/><path class="cls-1" d="M384.44,64.09a4.39,4.39,0,0,0-3.76-2,4,4,0,0,0-1.88.48,1.64,1.64,0,0,0-.92,1.56,1.34,1.34,0,0,0,.76,1.28,8.5,8.5,0,0,0,1.92.68l2.5.58a10,10,0,0,1,2.5.92,5.41,5.41,0,0,1,1.92,1.7,5,5,0,0,1,.76,3,5.39,5.39,0,0,1-.74,2.9,5.72,5.72,0,0,1-1.92,1.9,8.35,8.35,0,0,1-2.66,1,14.19,14.19,0,0,1-3,.32,12.62,12.62,0,0,1-4.12-.64,7.89,7.89,0,0,1-3.36-2.32l3.2-3a9.18,9.18,0,0,0,2,1.7,4.8,4.8,0,0,0,2.58.66,5.1,5.1,0,0,0,1.08-.12,3.45,3.45,0,0,0,1-.4,2.52,2.52,0,0,0,.78-.7,1.65,1.65,0,0,0,.3-1,1.62,1.62,0,0,0-.76-1.48,6.85,6.85,0,0,0-1.92-.78c-.77-.2-1.61-.38-2.5-.56a9.44,9.44,0,0,1-2.5-.84,5.37,5.37,0,0,1-1.92-1.62,4.83,4.83,0,0,1-.76-2.88,5.6,5.6,0,0,1,.66-2.78,5.8,5.8,0,0,1,1.74-1.94A7.48,7.48,0,0,1,378,58.65a11.32,11.32,0,0,1,6.64.3,6.19,6.19,0,0,1,3,2.26Z"/></g></g></svg>