<svg xmlns="http://www.w3.org/2000/svg" viewBox="0 0 313.59 86.37"><defs><style>.cls-1{fill:#4d6a6d;}</style></defs><title>oralHist_logo</title><g id="Layer_2" data-name="Layer 2"><g id="Layer_1-2" data-name="Layer 1"><rect class="cls-1" x="9.49" y="64.58" width="136.64" height="0.93"/><rect class="cls-1" y="75.08" width="313.59" height="0.84"/><rect class="cls-1" x="30.05" y="85.64" width="198.43" height="0.73"/><path class="cls-1" d="M9.11,26.61A14.13,14.13,0,0,1,0,23.07l1.18,5.37a20.56,20.56,0,0,0,7.47,1.31c6.49,0,11.2-4.32,11.2-8.91C19.85,12.91,5.5,13,5.5,7.08c0-2.95,3-3.93,5.38-3.93a9.36,9.36,0,0,1,6.55,2.69V1A20.06,20.06,0,0,0,11.2.07C6.09.07.72,2.17.72,7.54c0,9.11,14.35,7.93,14.35,14.61C15.07,25.17,11.47,26.61,9.11,26.61Z"/><path class="cls-1" d="M25.55,7.54,30.47,23.4c1.37,4.45,1.77,4.12,5.57,6.94L42.53,8.59,47.11,23.4c1.38,4.45,1.64,4.19,5.51,6.94L61.4.72H55V.86H55c3.28,1.18,1.9,4.65,1.11,7.07L51.44,23.66,45.67,5.05A9.8,9.8,0,0,1,45,.72H39.12V.86c2.29,1.18,1.44,4,.65,6.61L34.92,23.79,28.7,3.87A7.89,7.89,0,0,1,28.18.79h-6.1V.92C24.18,2.36,24.77,5.18,25.55,7.54Z"/><path class="cls-1" d="M69.13,28.9c-2-.79-1.71-2-.85-4.46l2.16-6.09H80.92l2.23,6.09c1.11,3,1.44,3.48-.59,4.46V29h8.58V28.9c-2.36-1.24-3.08-3.6-4.06-6.09L78.43.72H71.81V.86c2,.65,1.18,2.42.66,4l-7,18c-.91,2.42-1.63,4.85-4.06,6.09V29h7.67ZM75.68,4.46l4.06,10.81H71.55Z"/><path class="cls-1" d="M101.63,28.9c-2.1-.79-1.9-3.93-1.9-5.9V3.74a14,14,0,0,1,2.82-.33c2.81-.13,5.37,1.7,5.37,4.78,0,4.07-3.87,5.64-7.21,6.16l3.87,6.1,5.11,6.48a5.44,5.44,0,0,0,4.85,2.17h3.86a29.85,29.85,0,0,1-6.75-6.1l-6-7.79c3.41-.86,6.62-3.8,6.62-7.54,0-3.93-3-6.95-8.65-6.95h-10V.86c2.1.78,1.84,3.93,1.84,6V23c0,2,.26,5.11-1.84,5.9V29h8Z"/><path class="cls-1" d="M122.92,3.8h3.67V23c0,2,.26,5.05-1.83,5.9V29H133V28.9c-2.22-1.31-2.16-3-2.16-5.44V3.87h3.74c1.37,0,3,.2,3.6,1.7h.13L139.63.46h-.13a4.81,4.81,0,0,1-2,.26H121A4.17,4.17,0,0,1,119.38.4h-.13l-1.44,5.11h.13A7.09,7.09,0,0,1,122.92,3.8Z"/><path class="cls-1" d="M153.65,28.9c-2.09-.79-1.83-3.93-1.83-5.9V15.27h15.07v7.8c0,2,.26,5-1.84,5.9v.13h8V29c-2.1-.79-1.9-3.94-1.9-5.9V6.75c0-2-.26-5,1.9-5.89V.72h-8V.86H165c2.1.78,1.83,3.93,1.83,6v5.31H151.75V6.82c0-2-.26-5.11,1.84-6V.72h-7.93V.86c2.1.78,1.83,3.93,1.83,5.89V23c0,2,.27,5.05-1.83,5.9V29h8Z"/><path class="cls-1" d="M187.92,28.9c-2-.92-1.7-2.82-1.31-5.44L189,5l7.93,19.4a10.1,10.1,0,0,0,3.67,5.18l9.37-24.64,2.36,20.7c0,1.45-.26,2.76-1.71,3.21V29h8.06v-.14c-1.7-1.11-1.9-2.29-2.16-4.25l-2.75-21.1c0-1,.26-2.23,1.31-2.56V.79h-7.21V.86a6.76,6.76,0,0,1-.65,2.68l-6.95,18.22L192.38,2.82a4.93,4.93,0,0,1-.59-2V.79h-7.27V.92c1.9,1,1.44,2.82,1.31,4l-2.36,18c-.33,2.36-.59,4.46-2.36,6V29h6.81Z"/><path class="cls-1" d="M238.9,29.75a15.05,15.05,0,0,0,15.33-15.13A14.55,14.55,0,0,0,239.36,0,15,15,0,0,0,223.7,14.81C223.7,23.66,230.64,29.75,238.9,29.75Zm.2-26.6c6.61,0,10.48,6.09,10.48,12.32-.06,6.42-4.13,11.2-10.42,11.2-6.55,0-10.68-6.16-10.68-12.19C228.48,8,232.61,3.15,239.1,3.15Z"/><path class="cls-1" d="M268.12,28.9c-2.09-.79-1.9-3.93-1.9-5.9V3.74A14.13,14.13,0,0,1,269,3.41c2.82-.13,5.37,1.7,5.37,4.78,0,4.07-3.86,5.64-7.2,6.16l3.86,6.1,5.11,6.48A5.45,5.45,0,0,0,281,29.1h3.87a29.85,29.85,0,0,1-6.75-6.1l-6-7.79c3.41-.86,6.62-3.8,6.62-7.54,0-3.93-3-6.95-8.65-6.95h-10V.86c2.1.78,1.83,3.93,1.83,6V23c0,2,.27,5.11-1.83,5.9V29h8Z"/><path class="cls-1" d="M307.11,23.33H307A9.77,9.77,0,0,1,299.31,26l-5.3-.52V15.27h3.08c1.31,0,3-.06,3.73,1.18H301V11.86h-.13a4,4,0,0,1-1.83.27h-5v-8a22.58,22.58,0,0,1,4.26-.33c1.9,0,3.6.2,4.91,1.71h.13v-5h-.13a3.8,3.8,0,0,1-2,.2H287.85V.79c2.09.79,1.9,3.93,1.9,6V22.94c0,2,.26,5.11-1.9,5.89V29h17.36Z"/><path class="cls-1" d="M4.84,41.93a2.47,2.47,0,0,1,.54-.19,2.72,2.72,0,0,1,.55-.06,2.54,2.54,0,0,1,.91.18,1.46,1.46,0,0,1,.71.54l1.87-1.78A3.35,3.35,0,0,0,8,39.75a5.75,5.75,0,0,0-1.73-.26,5.56,5.56,0,0,0-1.56.23,4.5,4.5,0,0,0-1.42.66,4,4,0,0,0-1.07,1.09A3.6,3.6,0,0,0,1.69,43a2.37,2.37,0,0,0,.17,1.45,2.47,2.47,0,0,0,.82.88,4.59,4.59,0,0,0,1.14.53c.41.13.8.26,1.15.39a3,3,0,0,1,.87.48.78.78,0,0,1,.27.77,1,1,0,0,1-.22.5,1.47,1.47,0,0,1-.43.35,2.58,2.58,0,0,1-.57.21,3,3,0,0,1-.59.06,2.32,2.32,0,0,1-1.1-.26,2.09,2.09,0,0,1-.81-.75l-2,1.85a4,4,0,0,0,1.53,1,5.23,5.23,0,0,0,1.9.32,6.2,6.2,0,0,0,1.62-.21,4.54,4.54,0,0,0,1.41-.65A4.19,4.19,0,0,0,8,48.83a3.77,3.77,0,0,0,.55-1.57,2.73,2.73,0,0,0,0-1.19A2,2,0,0,0,8,45.25a2.61,2.61,0,0,0-.73-.54,8.08,8.08,0,0,0-.85-.37l-.88-.27a4.18,4.18,0,0,1-.76-.28,1.36,1.36,0,0,1-.5-.4.78.78,0,0,1-.13-.6,1,1,0,0,1,.23-.51A1.33,1.33,0,0,1,4.84,41.93Z"/><path class="cls-1" d="M11.84,41l-.3,2.19H10.08L9.82,45h1.46l-.5,3.51a2.27,2.27,0,0,0,.07,1,1.36,1.36,0,0,0,.47.69,2,2,0,0,0,.79.39,4.32,4.32,0,0,0,1.05.12,7.63,7.63,0,0,0,.82,0,3.19,3.19,0,0,0,.81-.19l.26-1.9a.88.88,0,0,1-.47.18c-.19,0-.35,0-.47,0a1.39,1.39,0,0,1-.57-.1.57.57,0,0,1-.29-.28,1,1,0,0,1-.09-.44,3.86,3.86,0,0,1,.05-.55L13.56,45h2l.26-1.83h-2l.3-2.19Z"/><path class="cls-1" d="M18.94,48.05a1.84,1.84,0,0,1-.05-.63c0-.23.05-.45.08-.66l.52-3.62H17.21l-.58,4.08a8.4,8.4,0,0,0-.09,1.38,2.67,2.67,0,0,0,.24,1.11,1.68,1.68,0,0,0,.73.74,3,3,0,0,0,1.37.26,2.76,2.76,0,0,0,.77-.1,3.36,3.36,0,0,0,.66-.28,2.58,2.58,0,0,0,.52-.38,2.79,2.79,0,0,0,.37-.42h0l-.13,1h2.19l1-7.39H22l-.52,3.68a5.1,5.1,0,0,1-.14.7,2.36,2.36,0,0,1-.28.6,1.33,1.33,0,0,1-.48.43,1.62,1.62,0,0,1-.74.16.94.94,0,0,1-.65-.19A.92.92,0,0,1,18.94,48.05Z"/><path class="cls-1" d="M32.88,50.53,34.49,39H32.21l-.7,4.89h0a1.68,1.68,0,0,0-.9-.75A3.64,3.64,0,0,0,29.27,43a3.22,3.22,0,0,0-1.45.33,4.06,4.06,0,0,0-1.18.87,5,5,0,0,0-1.29,2.74,4.09,4.09,0,0,0,0,1.53A3,3,0,0,0,26,49.64a2.74,2.74,0,0,0,1,.79,3.51,3.51,0,0,0,1.45.28,2.78,2.78,0,0,0,.76-.1,4.74,4.74,0,0,0,.69-.28,3.29,3.29,0,0,0,.57-.37,2.51,2.51,0,0,0,.4-.4h0l-.12,1Zm-2.26-2.34a2,2,0,0,1-1.42.52,1.52,1.52,0,0,1-1.27-.52,1.72,1.72,0,0,1-.28-1.35,2.24,2.24,0,0,1,.67-1.36A2,2,0,0,1,29.73,45a1.55,1.55,0,0,1,1.28.51,1.73,1.73,0,0,1,.29,1.36A2.25,2.25,0,0,1,30.62,48.19Z"/><path class="cls-1" d="M42.79,46.84a4.71,4.71,0,0,0,0-1.6A2.94,2.94,0,0,0,42.24,44a2.5,2.5,0,0,0-1-.79,3.4,3.4,0,0,0-1.4-.27,5.08,5.08,0,0,0-1.64.27A4.75,4.75,0,0,0,36.8,44a4.38,4.38,0,0,0-1,1.22,4.27,4.27,0,0,0-.54,1.6,3.62,3.62,0,0,0,.1,1.59,3,3,0,0,0,.7,1.23,3.09,3.09,0,0,0,1.19.78,4.51,4.51,0,0,0,3.35-.11,4.35,4.35,0,0,0,1.53-1.08l-1.43-1.17a3.13,3.13,0,0,1-.77.65,1.83,1.83,0,0,1-1,.25,1.48,1.48,0,0,1-1.07-.39,1.52,1.52,0,0,1-.45-1h5.29ZM37.6,46a1.7,1.7,0,0,1,.22-.52A1.82,1.82,0,0,1,38.2,45a2.11,2.11,0,0,1,.53-.31,1.83,1.83,0,0,1,.68-.12,1.15,1.15,0,0,1,1.2,1.4Z"/><path class="cls-1" d="M44.92,43.14l-1,7.39h2.28l.52-3.68a4.13,4.13,0,0,1,.14-.7,2,2,0,0,1,.27-.6,1.22,1.22,0,0,1,.48-.42,1.5,1.5,0,0,1,.74-.16,1,1,0,0,1,.65.18.92.92,0,0,1,.29.47,1.85,1.85,0,0,1,0,.63c0,.23,0,.45-.07.66l-.5,3.62H51l.56-4.07a8.59,8.59,0,0,0,.09-1.39A2.75,2.75,0,0,0,51.41,44a1.66,1.66,0,0,0-.73-.73A2.92,2.92,0,0,0,49.31,43a2.83,2.83,0,0,0-.78.11,3,3,0,0,0-.65.27,2.9,2.9,0,0,0-.52.38,2,2,0,0,0-.36.43h0l.13-1Z"/><path class="cls-1" d="M54.92,41l-.31,2.19H53.15L52.89,45h1.46l-.5,3.51a2.27,2.27,0,0,0,.07,1,1.42,1.42,0,0,0,.47.69,2.06,2.06,0,0,0,.8.39,4.21,4.21,0,0,0,1.05.12,7.57,7.57,0,0,0,.81,0,3.37,3.37,0,0,0,.82-.19l.25-1.9a.84.84,0,0,1-.46.18l-.48,0a1.46,1.46,0,0,1-.57-.1.61.61,0,0,1-.29-.28,1.15,1.15,0,0,1-.08-.44,3.74,3.74,0,0,1,0-.55L56.63,45h2l.26-1.83h-2L57.2,41Z"/><path class="cls-1" d="M71.17,48.25l.6,2.28h2.68L71.27,39.77h-2L63.16,50.53h2.61L67,48.25ZM69.78,42.9l.85,3.34H68Z"/><path class="cls-1" d="M78.7,45.48A2,2,0,0,1,80.12,45a1.23,1.23,0,0,1,.63.16,1,1,0,0,1,.42.4L82.88,44a2.37,2.37,0,0,0-1.14-.77A4.33,4.33,0,0,0,80.39,43a5,5,0,0,0-1.64.27,4.63,4.63,0,0,0-1.41.79,4.22,4.22,0,0,0-1,1.22,4.27,4.27,0,0,0-.54,1.6,3.62,3.62,0,0,0,.09,1.59,3,3,0,0,0,1.9,2,4.33,4.33,0,0,0,1.56.27,4.84,4.84,0,0,0,1.4-.22,3.48,3.48,0,0,0,1.37-.77L80.8,48.14a2.11,2.11,0,0,1-.53.4,1.4,1.4,0,0,1-.68.17,1.52,1.52,0,0,1-1.27-.52A1.68,1.68,0,0,1,78,46.84,2.28,2.28,0,0,1,78.7,45.48Z"/><path class="cls-1" d="M85.1,41l-.3,2.19H83.34L83.08,45h1.46L84,48.48a2.27,2.27,0,0,0,.07,1,1.36,1.36,0,0,0,.47.69,2,2,0,0,0,.8.39,4.21,4.21,0,0,0,1.05.12,7.57,7.57,0,0,0,.81,0,3.19,3.19,0,0,0,.81-.19l.26-1.9a.88.88,0,0,1-.46.18l-.48,0a1.46,1.46,0,0,1-.57-.1.61.61,0,0,1-.29-.28,1,1,0,0,1-.08-.44,3.74,3.74,0,0,1,0-.55L86.82,45h2l.26-1.83h-2l.3-2.19Z"/><polygon class="cls-1" points="90.5 43.14 89.47 50.53 91.75 50.53 92.78 43.14 90.5 43.14"/><path class="cls-1" d="M90.64,40.82a1.44,1.44,0,0,0,0,.51,1.05,1.05,0,0,0,.22.42,1.17,1.17,0,0,0,.38.28,1.23,1.23,0,0,0,.51.11,1.4,1.4,0,0,0,.53-.11,1.53,1.53,0,0,0,.46-.28,1.28,1.28,0,0,0,.34-.42,1.34,1.34,0,0,0,.17-.51,1.14,1.14,0,0,0-.25-.94,1.08,1.08,0,0,0-.87-.39,1.45,1.45,0,0,0-.54.11,2,2,0,0,0-.46.28,1.58,1.58,0,0,0-.52.94Z"/><polygon class="cls-1" points="102.26 43.14 99.97 43.14 97.52 48.16 97.49 48.16 96.34 43.14 93.87 43.14 95.89 50.53 98.31 50.53 102.26 43.14"/><path class="cls-1" d="M105,39.49a1.45,1.45,0,0,0-.54.11,2,2,0,0,0-.46.28,1.58,1.58,0,0,0-.52.94,1.24,1.24,0,0,0,0,.51,1.05,1.05,0,0,0,.22.42,1.08,1.08,0,0,0,.38.28,1.23,1.23,0,0,0,.51.11,1.44,1.44,0,0,0,.53-.11,1.67,1.67,0,0,0,.46-.28,1.28,1.28,0,0,0,.34-.42,1.34,1.34,0,0,0,.17-.51,1.14,1.14,0,0,0-.25-.94A1.08,1.08,0,0,0,105,39.49Z"/><polygon class="cls-1" points="102.33 50.53 104.61 50.53 105.64 43.14 103.36 43.14 102.33 50.53"/><path class="cls-1" d="M110,48.87a2.43,2.43,0,0,1-.73.11,1.67,1.67,0,0,1-.87-.21,1.79,1.79,0,0,1-.63-.6l-1.6,1.54a2.4,2.4,0,0,0,1.23.78,5.41,5.41,0,0,0,1.54.22,7.26,7.26,0,0,0,1.21-.11,3.92,3.92,0,0,0,1.15-.4,2.79,2.79,0,0,0,.9-.74,2.29,2.29,0,0,0,.48-1.18,1.94,1.94,0,0,0-.13-1.12,1.71,1.71,0,0,0-.62-.66,2.79,2.79,0,0,0-.87-.35l-.89-.22a3.09,3.09,0,0,1-.69-.23.34.34,0,0,1-.22-.4.57.57,0,0,1,.33-.47,1.45,1.45,0,0,1,1.82.49L113,43.93a2.31,2.31,0,0,0-1.15-.76,5.12,5.12,0,0,0-1.44-.21,4.62,4.62,0,0,0-1.16.15,3.44,3.44,0,0,0-1.06.44,2.86,2.86,0,0,0-.81.78,2.52,2.52,0,0,0-.42,1.12,1.66,1.66,0,0,0,.12,1.12,1.64,1.64,0,0,0,.63.65,3.58,3.58,0,0,0,.88.34l.9.21a3.54,3.54,0,0,1,.68.24.4.4,0,0,1,.22.44A.52.52,0,0,1,110,48.87Z"/><path class="cls-1" d="M114.77,43.14l-1,7.39H116l.52-3.68a5.4,5.4,0,0,1,.13-.7,2.06,2.06,0,0,1,.28-.6,1.22,1.22,0,0,1,.48-.42,1.46,1.46,0,0,1,.73-.16.79.79,0,0,1,.58.18.91.91,0,0,1,.24.44,2.47,2.47,0,0,1,0,.55q0,.28-.06.48l-.54,3.91h2.28l.54-3.91a2.65,2.65,0,0,1,.16-.63,1.67,1.67,0,0,1,.3-.54,1.3,1.3,0,0,1,.48-.35,1.51,1.51,0,0,1,.67-.13.7.7,0,0,1,.73.37,1.6,1.6,0,0,1,.1.89l-.6,4.3h2.28l.61-4.36a6.06,6.06,0,0,0,.05-1.26,2.39,2.39,0,0,0-.29-1,1.72,1.72,0,0,0-.72-.69,2.53,2.53,0,0,0-1.21-.25,3.13,3.13,0,0,0-1.42.3,3.29,3.29,0,0,0-1.11,1,1.59,1.59,0,0,0-.76-1,2.67,2.67,0,0,0-1.33-.32,2.77,2.77,0,0,0-.78.11,3,3,0,0,0-.65.27,2.58,2.58,0,0,0-.52.38,2,2,0,0,0-.36.43h0l.13-1Z"/><path class="cls-1" d="M128.77,45.65a1.32,1.32,0,0,0,.53.11,1.51,1.51,0,0,0,.56-.11,1.66,1.66,0,0,0,.49-.3,1.73,1.73,0,0,0,.36-.44,1.64,1.64,0,0,0,.19-.55,1.26,1.26,0,0,0,0-.55,1.22,1.22,0,0,0-.24-.45,1.33,1.33,0,0,0-.41-.29,1.37,1.37,0,0,0-.54-.11,1.5,1.5,0,0,0-.55.11,1.86,1.86,0,0,0-.49.29,1.7,1.7,0,0,0-.35.45,1.57,1.57,0,0,0-.19.55,1.27,1.27,0,0,0,0,.55,1.11,1.11,0,0,0,.24.44A1.08,1.08,0,0,0,128.77,45.65Z"/><path class="cls-1" d="M127.61,48.68a1.52,1.52,0,0,0-.19.54,1.25,1.25,0,0,0,0,.55,1.22,1.22,0,0,0,.24.45,1,1,0,0,0,.4.29,1.17,1.17,0,0,0,.53.11,1.36,1.36,0,0,0,.56-.11,1.71,1.71,0,0,0,.48-.29,1.78,1.78,0,0,0,.37-.45,1.71,1.71,0,0,0,.19-.55,1.18,1.18,0,0,0-.28-1,1.13,1.13,0,0,0-.92-.42,1.6,1.6,0,0,0-.57.11,1.5,1.5,0,0,0-.48.3A1.46,1.46,0,0,0,127.61,48.68Z"/><path class="cls-1" d="M137.87,42.81a6.65,6.65,0,0,0-.77,2.34,5.81,5.81,0,0,0,.11,2.34,4.23,4.23,0,0,0,2.63,2.92,6.34,6.34,0,0,0,2.28.39,5.87,5.87,0,0,0,2.22-.45,5.13,5.13,0,0,0,1.93-1.42l-1.77-1.47a3.14,3.14,0,0,1-1,.85,3,3,0,0,1-1.34.3,2.57,2.57,0,0,1-1.16-.25,2.47,2.47,0,0,1-.87-.73,2.87,2.87,0,0,1-.49-1.09,4,4,0,0,1,0-1.39,4.46,4.46,0,0,1,.44-1.38,4.15,4.15,0,0,1,.8-1.11,3.63,3.63,0,0,1,1.09-.72,3.29,3.29,0,0,1,1.28-.26,2.66,2.66,0,0,1,1.14.23,2,2,0,0,1,.77.66l2-1.49a2.58,2.58,0,0,0-.68-.75,4.07,4.07,0,0,0-.86-.49,4.28,4.28,0,0,0-.93-.26,5.07,5.07,0,0,0-.94-.09,7.21,7.21,0,0,0-2.38.4,6.25,6.25,0,0,0-2,1.13A6.4,6.4,0,0,0,137.87,42.81Z"/><path class="cls-1" d="M151.13,40.82a1.14,1.14,0,0,0-.25-.94,1.08,1.08,0,0,0-.87-.39,1.45,1.45,0,0,0-.54.11,2,2,0,0,0-.46.28,1.58,1.58,0,0,0-.52.94,1.44,1.44,0,0,0,0,.51,1.05,1.05,0,0,0,.22.42,1.17,1.17,0,0,0,.38.28,1.23,1.23,0,0,0,.51.11,1.4,1.4,0,0,0,.53-.11,1.67,1.67,0,0,0,.46-.28,1.28,1.28,0,0,0,.34-.42A1.34,1.34,0,0,0,151.13,40.82Z"/><polygon class="cls-1" points="147.32 50.53 149.6 50.53 150.63 43.14 148.35 43.14 147.32 50.53"/><polygon class="cls-1" points="155.34 48.16 154.19 43.14 151.72 43.14 153.75 50.53 156.16 50.53 160.12 43.14 157.82 43.14 155.37 48.16 155.34 48.16"/><path class="cls-1" d="M164,40.82a1.14,1.14,0,0,0-.25-.94,1.08,1.08,0,0,0-.87-.39,1.45,1.45,0,0,0-.54.11,2,2,0,0,0-.46.28,1.58,1.58,0,0,0-.52.94,1.44,1.44,0,0,0,0,.51,1.05,1.05,0,0,0,.22.42A1.17,1.17,0,0,0,162,42a1.23,1.23,0,0,0,.51.11A1.44,1.44,0,0,0,163,42a1.67,1.67,0,0,0,.46-.28,1.28,1.28,0,0,0,.34-.42A1.34,1.34,0,0,0,164,40.82Z"/><polygon class="cls-1" points="160.18 50.53 162.46 50.53 163.49 43.14 161.21 43.14 160.18 50.53"/><polygon class="cls-1" points="166.63 50.53 168.25 39.04 165.97 39.04 164.35 50.53 166.63 50.53"/><path class="cls-1" d="M176.48,46.23h1.17l1.66,4.3h2.84L180.06,46a3.17,3.17,0,0,0,1.87-1,3.68,3.68,0,0,0,.86-1.93,3.2,3.2,0,0,0-.1-1.58,2.23,2.23,0,0,0-.75-1,3,3,0,0,0-1.22-.53,6.72,6.72,0,0,0-1.53-.16H175l-1.51,10.76h2.37Zm.63-4.45h1.55a4.58,4.58,0,0,1,.64,0,1.82,1.82,0,0,1,.57.17.93.93,0,0,1,.38.38,1,1,0,0,1,.08.65,1.19,1.19,0,0,1-.29.68,1.26,1.26,0,0,1-.53.36,2.28,2.28,0,0,1-.66.14l-.68,0h-1.4Z"/><polygon class="cls-1" points="183.34 50.53 185.62 50.53 186.65 43.14 184.37 43.14 183.34 50.53"/><path class="cls-1" d="M187.15,40.82a1.11,1.11,0,0,0-.25-.94,1.07,1.07,0,0,0-.87-.39,1.4,1.4,0,0,0-.53.11,2,2,0,0,0-.47.28,1.74,1.74,0,0,0-.34.42,1.53,1.53,0,0,0-.18.52,1.24,1.24,0,0,0,0,.51.94.94,0,0,0,.22.42,1.08,1.08,0,0,0,.38.28,1.18,1.18,0,0,0,.5.11,1.4,1.4,0,0,0,.53-.11,1.53,1.53,0,0,0,.46-.28,1.39,1.39,0,0,0,.51-.93Z"/><path class="cls-1" d="M190.45,54.18a4.85,4.85,0,0,0,3.37-1.09,5,5,0,0,0,1.5-3.18l1-6.77h-2.09l-.14,1h0a1.78,1.78,0,0,0-.3-.41,2.5,2.5,0,0,0-.5-.37,3.1,3.1,0,0,0-.69-.27,3.42,3.42,0,0,0-.88-.11,3.23,3.23,0,0,0-1.46.33,4,4,0,0,0-1.18.86,4.23,4.23,0,0,0-.83,1.23,4.93,4.93,0,0,0-.44,1.43,4.09,4.09,0,0,0,0,1.53,3,3,0,0,0,.57,1.21,2.74,2.74,0,0,0,1,.79,3.51,3.51,0,0,0,1.45.28A3.36,3.36,0,0,0,192,50.4a2.64,2.64,0,0,0,1.08-.75h0l-.1.71a2.16,2.16,0,0,1-.69,1.3,2.3,2.3,0,0,1-1.61.51,2.8,2.8,0,0,1-1.25-.26,3.74,3.74,0,0,1-1-.7L186.9,53.1a3.76,3.76,0,0,0,1.64.86A8.6,8.6,0,0,0,190.45,54.18Zm2.5-6.12a2.23,2.23,0,0,1-.64.4,1.83,1.83,0,0,1-.73.15,1.61,1.61,0,0,1-.71-.15,1.48,1.48,0,0,1-.52-.4,1.67,1.67,0,0,1-.29-.58,1.76,1.76,0,0,1,.19-1.38,2.18,2.18,0,0,1,.47-.58,2.32,2.32,0,0,1,.63-.4,1.85,1.85,0,0,1,.74-.15,1.6,1.6,0,0,1,.7.15,1.43,1.43,0,0,1,.53.4,1.67,1.67,0,0,1,.29.58,1.6,1.6,0,0,1,0,.69,1.78,1.78,0,0,1-.24.69A2.18,2.18,0,0,1,193,48.06Z"/><path class="cls-1" d="M202.13,50.53h2.28l.56-4.07a8.59,8.59,0,0,0,.09-1.39,2.75,2.75,0,0,0-.24-1.11,1.61,1.61,0,0,0-.73-.73,2.92,2.92,0,0,0-1.37-.27,2.87,2.87,0,0,0-1.42.38,2.37,2.37,0,0,0-.49.38,1.73,1.73,0,0,0-.31.43h0l.71-5.11H198.9l-1.61,11.49h2.28l.52-3.68a5.42,5.42,0,0,1,.14-.7,2,2,0,0,1,.27-.6,1.22,1.22,0,0,1,.48-.42,1.5,1.5,0,0,1,.74-.16,1,1,0,0,1,.65.18.92.92,0,0,1,.29.47,1.85,1.85,0,0,1,0,.63c0,.23,0,.45-.07.66Z"/><path class="cls-1" d="M210.05,45h2l.26-1.83h-2l.31-2.19h-2.28L208,43.14h-1.46L206.31,45h1.45l-.5,3.51a2.42,2.42,0,0,0,.07,1,1.49,1.49,0,0,0,.47.69,2.06,2.06,0,0,0,.8.39,4.27,4.27,0,0,0,1.05.12,7.57,7.57,0,0,0,.81,0,3.37,3.37,0,0,0,.82-.19l.25-1.9a.84.84,0,0,1-.46.18l-.48,0a1.46,1.46,0,0,1-.57-.1.66.66,0,0,1-.29-.28,1.15,1.15,0,0,1-.08-.44,3.86,3.86,0,0,1,0-.55Z"/><path class="cls-1" d="M216.55,43a4.54,4.54,0,0,0-1.15.15,3.44,3.44,0,0,0-1.06.44,2.86,2.86,0,0,0-.81.78,2.41,2.41,0,0,0-.43,1.12,1.79,1.79,0,0,0,.12,1.12,1.64,1.64,0,0,0,.63.65,3.74,3.74,0,0,0,.88.34l.9.21a3.1,3.1,0,0,1,.68.24.4.4,0,0,1,.23.44.52.52,0,0,1-.38.42,2.48,2.48,0,0,1-.73.11,1.71,1.71,0,0,1-.88-.21,1.79,1.79,0,0,1-.63-.6l-1.59,1.54a2.4,2.4,0,0,0,1.23.78,5.29,5.29,0,0,0,1.53.22,7.37,7.37,0,0,0,1.22-.11,4,4,0,0,0,1.15-.4,2.9,2.9,0,0,0,.9-.74,2.29,2.29,0,0,0,.47-1.18,1.86,1.86,0,0,0-.13-1.12,1.69,1.69,0,0,0-.61-.66,3,3,0,0,0-.88-.35l-.89-.22a3,3,0,0,1-.68-.23.35.35,0,0,1-.23-.4.56.56,0,0,1,.34-.47,1.33,1.33,0,0,1,.57-.14,1.39,1.39,0,0,1,1.25.63l1.58-1.39a2.34,2.34,0,0,0-1.16-.76A5,5,0,0,0,216.55,43Z"/><polygon class="cls-1" points="221.06 52.35 223.03 48.07 220.84 48.07 219.12 52.35 221.06 52.35"/><polygon class="cls-1" points="235.14 50.53 236.65 39.77 234.52 39.77 230.59 42.73 231.67 44.22 234.09 42.32 232.95 50.53 235.14 50.53"/><path class="cls-1" d="M242.69,50.53l2.88-3.68.59-.8a6.2,6.2,0,0,0,.52-.81,5.26,5.26,0,0,0,.41-.9,5.48,5.48,0,0,0,.27-1.06,3.4,3.4,0,0,0-.11-1.51,3,3,0,0,0-.68-1.17,3.19,3.19,0,0,0-1.17-.75,4.26,4.26,0,0,0-1.54-.26,4.81,4.81,0,0,0-1.61.26,4.72,4.72,0,0,0-1.38.75,4.77,4.77,0,0,0-1,1.17,3.81,3.81,0,0,0-.51,1.51,3.53,3.53,0,0,0,0,1.38,2.73,2.73,0,0,0,.53,1.11,2.54,2.54,0,0,0,1,.75,3.19,3.19,0,0,0,1.35.27,2.34,2.34,0,0,0,.38,0l.38-.08-3.06,3.85Zm-.78-6a1.43,1.43,0,0,1-.31-1.21,1.93,1.93,0,0,1,.65-1.21,1.89,1.89,0,0,1,1.31-.48,1.52,1.52,0,0,1,1.19.48,1.44,1.44,0,0,1,.32,1.21,2,2,0,0,1-.66,1.21,1.92,1.92,0,0,1-1.32.48A1.48,1.48,0,0,1,241.91,44.58Z"/><path class="cls-1" d="M252.64,39.77l-2.88,3.68-.61.79a7.6,7.6,0,0,0-.52.82,6.16,6.16,0,0,0-.41.9A4.71,4.71,0,0,0,248,47a3.41,3.41,0,0,0,.09,1.51,2.79,2.79,0,0,0,.69,1.16,3.25,3.25,0,0,0,1.17.76,4.46,4.46,0,0,0,1.55.26,5.17,5.17,0,0,0,1.61-.26,4.64,4.64,0,0,0,1.38-.76,4.33,4.33,0,0,0,1-1.16A4,4,0,0,0,256,47a3.34,3.34,0,0,0-.05-1.38,2.73,2.73,0,0,0-.53-1.11,2.55,2.55,0,0,0-1-.75,3.18,3.18,0,0,0-1.34-.27,2.25,2.25,0,0,0-.38,0l-.38.07,3.07-3.84Zm.77,5.95a1.44,1.44,0,0,1,.32,1.21,2,2,0,0,1-.65,1.21,2,2,0,0,1-1.33.47,1.48,1.48,0,0,1-1.17-.47,1.45,1.45,0,0,1-.32-1.21,2,2,0,0,1,.65-1.21,1.91,1.91,0,0,1,1.31-.48A1.5,1.5,0,0,1,253.41,45.72Z"/><path class="cls-1" d="M258.82,50.2a3.17,3.17,0,0,0,1.9.51,3.86,3.86,0,0,0,2-.51,4.42,4.42,0,0,0,1.41-1.31,6.55,6.55,0,0,0,.88-1.8,12.57,12.57,0,0,0,.44-1.94,9.74,9.74,0,0,0,.1-1.95,5.09,5.09,0,0,0-.37-1.79,3,3,0,0,0-1-1.31,3.17,3.17,0,0,0-1.9-.51,3.9,3.9,0,0,0-2.05.51,4.49,4.49,0,0,0-1.4,1.31A6.81,6.81,0,0,0,258,43.2a11.89,11.89,0,0,0-.45,1.95,10.47,10.47,0,0,0-.1,1.94,5.15,5.15,0,0,0,.38,1.8A3,3,0,0,0,258.82,50.2Zm.85-4c0-.4.07-.74.11-1s.1-.62.18-1a5.23,5.23,0,0,1,.37-1.14,3.05,3.05,0,0,1,.63-.93,1.45,1.45,0,0,1,1-.38,1.09,1.09,0,0,1,.91.38,2.15,2.15,0,0,1,.38.93,4.33,4.33,0,0,1,.05,1.14c0,.4-.07.74-.11,1s-.1.62-.18,1a5.8,5.8,0,0,1-.36,1.14,3.11,3.11,0,0,1-.65.93,1.42,1.42,0,0,1-1,.37,1.06,1.06,0,0,1-.91-.37,2.15,2.15,0,0,1-.38-.93A4.8,4.8,0,0,1,259.67,46.17Z"/><polygon class="cls-1" points="266.25 47.66 269.99 47.66 270.25 45.83 266.51 45.83 266.25 47.66"/><polygon class="cls-1" points="276.77 50.53 278.28 39.77 276.15 39.77 272.23 42.73 273.31 44.22 275.72 42.32 274.58 50.53 276.77 50.53"/><path class="cls-1" d="M282.5,40.6a4.77,4.77,0,0,0-1,1.17,3.81,3.81,0,0,0-.51,1.51,3.74,3.74,0,0,0,0,1.38,2.73,2.73,0,0,0,.53,1.11,2.62,2.62,0,0,0,.95.75,3.22,3.22,0,0,0,1.35.27,2.34,2.34,0,0,0,.38,0l.38-.08-3.06,3.85h2.79l2.87-3.68.59-.8a7.53,7.53,0,0,0,.53-.81,7.44,7.44,0,0,0,.41-.9,6.32,6.32,0,0,0,.26-1.06,3.55,3.55,0,0,0-.1-1.51,3,3,0,0,0-.69-1.17,3.19,3.19,0,0,0-1.17-.75,4.2,4.2,0,0,0-1.53-.26,4.76,4.76,0,0,0-3,1Zm3.88,1.56a1.44,1.44,0,0,1,.32,1.21,2,2,0,0,1-2,1.69,1.49,1.49,0,0,1-1.18-.48,1.43,1.43,0,0,1-.31-1.21,1.93,1.93,0,0,1,.65-1.21,1.91,1.91,0,0,1,1.31-.48A1.52,1.52,0,0,1,286.38,42.16Z"/><path class="cls-1" d="M294.27,39.77l-2.88,3.68-.6.79a6.38,6.38,0,0,0-.53.82,6.16,6.16,0,0,0-.41.9A4.71,4.71,0,0,0,289.6,47a3.41,3.41,0,0,0,.09,1.51,2.79,2.79,0,0,0,.69,1.16,3.25,3.25,0,0,0,1.17.76,4.46,4.46,0,0,0,1.55.26,5.17,5.17,0,0,0,1.61-.26,4.52,4.52,0,0,0,1.38-.76,4.17,4.17,0,0,0,1-1.16,4,4,0,0,0,.53-1.51,3.52,3.52,0,0,0-.06-1.38,2.73,2.73,0,0,0-.53-1.11,2.55,2.55,0,0,0-1-.75,3.14,3.14,0,0,0-1.34-.27,2.34,2.34,0,0,0-.38,0l-.38.07,3.07-3.84Zm.77,5.95a1.4,1.4,0,0,1,.32,1.21,2,2,0,0,1-.65,1.21,2,2,0,0,1-1.32.47,1.51,1.51,0,0,1-1.18-.47,1.44,1.44,0,0,1-.31-1.21,1.93,1.93,0,0,1,2-1.69A1.49,1.49,0,0,1,295,45.72Z"/><path class="cls-1" d="M303.49,39.77l-2.87,3.68-.61.79a7.6,7.6,0,0,0-.52.82,5.26,5.26,0,0,0-.41.9,4.71,4.71,0,0,0-.25,1.06,3.41,3.41,0,0,0,.09,1.51,2.79,2.79,0,0,0,.69,1.16,3.25,3.25,0,0,0,1.17.76,4.44,4.44,0,0,0,1.54.26,5.08,5.08,0,0,0,1.61-.26,4.57,4.57,0,0,0,1.39-.76,4.33,4.33,0,0,0,1-1.16,4,4,0,0,0,.52-1.51,3.52,3.52,0,0,0-.05-1.38,2.86,2.86,0,0,0-.53-1.11,2.55,2.55,0,0,0-1-.75,3.18,3.18,0,0,0-1.34-.27,2.25,2.25,0,0,0-.38,0l-.38.07,3.07-3.84Zm.78,5.95a1.44,1.44,0,0,1,.32,1.21,1.93,1.93,0,0,1-.66,1.21,2,2,0,0,1-1.32.47,1.52,1.52,0,0,1-1.18-.47,1.48,1.48,0,0,1-.31-1.21,1.93,1.93,0,0,1,.65-1.21,1.91,1.91,0,0,1,1.31-.48A1.5,1.5,0,0,1,304.27,45.72Z"/></g></g></svg>